<svg width="220" height="37" viewBox="0 0 220 37" fill="none" xmlns="http://www.w3.org/2000/svg">
<path d="M65.3073 25.296C65.498 25.3133 65.7493 25.3307 66.0613 25.348C66.3733 25.348 66.798 25.348 67.3353 25.348C69.5366 25.348 71.1746 24.7933 72.2493 23.684C73.3413 22.5573 73.8873 20.9887 73.8873 18.978C73.8873 16.9327 73.3586 15.364 72.3013 14.272C71.244 13.18 69.606 12.634 67.3873 12.634C66.4166 12.634 65.7233 12.66 65.3073 12.712V25.296ZM77.3193 18.978C77.3193 20.538 77.0766 21.8987 76.5913 23.06C76.106 24.204 75.4126 25.166 74.5113 25.946C73.6273 26.7087 72.5526 27.2807 71.2873 27.662C70.0393 28.026 68.6526 28.208 67.1273 28.208C66.3993 28.208 65.576 28.1733 64.6573 28.104C63.7386 28.052 62.8633 27.9307 62.0313 27.74V10.242C62.8633 10.0513 63.7473 9.93 64.6833 9.878C65.6193 9.826 66.4513 9.8 67.1793 9.8C68.6873 9.8 70.0653 9.982 71.3133 10.346C72.5613 10.6927 73.6273 11.2473 74.5113 12.01C75.4126 12.7553 76.106 13.7087 76.5913 14.87C77.0766 16.014 77.3193 17.3833 77.3193 18.978ZM79.9865 21.266C79.9865 20.07 80.1599 19.0213 80.5065 18.12C80.8705 17.2187 81.3472 16.4733 81.9365 15.884C82.5259 15.2773 83.2019 14.8267 83.9645 14.532C84.7272 14.22 85.5072 14.064 86.3045 14.064C88.1765 14.064 89.6325 14.6447 90.6725 15.806C91.7299 16.9673 92.2585 18.7007 92.2585 21.006C92.2585 21.1793 92.2499 21.3787 92.2325 21.604C92.2325 21.812 92.2239 22.0027 92.2065 22.176H83.2365C83.3232 23.268 83.7045 24.1173 84.3805 24.724C85.0739 25.3133 86.0705 25.608 87.3705 25.608C88.1332 25.608 88.8265 25.5387 89.4505 25.4C90.0919 25.2613 90.5945 25.114 90.9585 24.958L91.3745 27.532C91.2012 27.6187 90.9585 27.714 90.6465 27.818C90.3519 27.9047 90.0052 27.9827 89.6065 28.052C89.2252 28.1387 88.8092 28.208 88.3585 28.26C87.9079 28.312 87.4485 28.338 86.9805 28.338C85.7845 28.338 84.7445 28.1647 83.8605 27.818C82.9765 27.454 82.2485 26.96 81.6765 26.336C81.1045 25.6947 80.6799 24.9493 80.4025 24.1C80.1252 23.2333 79.9865 22.2887 79.9865 21.266ZM89.1125 19.862C89.1125 19.4287 89.0519 19.0213 88.9305 18.64C88.8092 18.2413 88.6272 17.9033 88.3845 17.626C88.1592 17.3313 87.8732 17.106 87.5265 16.95C87.1972 16.7767 86.7985 16.69 86.3305 16.69C85.8452 16.69 85.4205 16.7853 85.0565 16.976C84.6925 17.1493 84.3805 17.3833 84.1205 17.678C83.8779 17.9727 83.6872 18.3107 83.5485 18.692C83.4099 19.0733 83.3145 19.4633 83.2625 19.862H89.1125ZM99 25.738C99.832 25.738 100.439 25.6427 100.82 25.452C101.201 25.244 101.392 24.8973 101.392 24.412C101.392 23.9613 101.184 23.5887 100.768 23.294C100.369 22.9993 99.702 22.6787 98.766 22.332C98.194 22.124 97.6654 21.9073 97.18 21.682C96.712 21.4393 96.3047 21.162 95.958 20.85C95.6114 20.538 95.334 20.1653 95.126 19.732C94.9354 19.2813 94.84 18.7353 94.84 18.094C94.84 16.846 95.2994 15.8667 96.218 15.156C97.1367 14.428 98.3847 14.064 99.962 14.064C100.759 14.064 101.522 14.142 102.25 14.298C102.978 14.4367 103.524 14.5753 103.888 14.714L103.316 17.262C102.969 17.106 102.527 16.9673 101.99 16.846C101.453 16.7073 100.829 16.638 100.118 16.638C99.4767 16.638 98.9567 16.7507 98.558 16.976C98.1594 17.184 97.96 17.5133 97.96 17.964C97.96 18.1893 97.9947 18.3887 98.064 18.562C98.1507 18.7353 98.2894 18.9 98.48 19.056C98.6707 19.1947 98.922 19.342 99.234 19.498C99.546 19.6367 99.9274 19.784 100.378 19.94C101.123 20.2173 101.756 20.4947 102.276 20.772C102.796 21.032 103.221 21.3353 103.55 21.682C103.897 22.0113 104.148 22.3927 104.304 22.826C104.46 23.2593 104.538 23.7793 104.538 24.386C104.538 25.686 104.053 26.674 103.082 27.35C102.129 28.0087 100.759 28.338 98.974 28.338C97.778 28.338 96.816 28.234 96.088 28.026C95.36 27.8353 94.8487 27.6793 94.554 27.558L95.1 24.932C95.568 25.1227 96.1227 25.3047 96.764 25.478C97.4227 25.6513 98.168 25.738 99 25.738ZM110.649 28H107.503V14.402H110.649V28ZM110.987 10.424C110.987 11.0133 110.796 11.4813 110.415 11.828C110.034 12.1747 109.583 12.348 109.063 12.348C108.526 12.348 108.066 12.1747 107.685 11.828C107.304 11.4813 107.113 11.0133 107.113 10.424C107.113 9.81733 107.304 9.34067 107.685 8.994C108.066 8.64733 108.526 8.474 109.063 8.474C109.583 8.474 110.034 8.64733 110.415 8.994C110.796 9.34067 110.987 9.81733 110.987 10.424ZM117.132 20.85C117.132 22.1847 117.418 23.164 117.99 23.788C118.58 24.3947 119.334 24.698 120.252 24.698C120.755 24.698 121.223 24.6287 121.656 24.49C122.107 24.3513 122.471 24.1867 122.748 23.996V16.95C122.523 16.898 122.246 16.8547 121.916 16.82C121.587 16.768 121.171 16.742 120.668 16.742C119.524 16.742 118.649 17.1233 118.042 17.886C117.436 18.6313 117.132 19.6193 117.132 20.85ZM125.894 26.622C125.894 28.7887 125.34 30.3747 124.23 31.38C123.138 32.3853 121.457 32.888 119.186 32.888C118.354 32.888 117.54 32.8187 116.742 32.68C115.962 32.5413 115.252 32.3593 114.61 32.134L115.182 29.456C115.72 29.6813 116.326 29.8633 117.002 30.002C117.696 30.1407 118.441 30.21 119.238 30.21C120.504 30.21 121.405 29.95 121.942 29.43C122.48 28.91 122.748 28.1387 122.748 27.116V26.596C122.436 26.752 122.02 26.908 121.5 27.064C120.998 27.22 120.417 27.298 119.758 27.298C118.892 27.298 118.094 27.1593 117.366 26.882C116.656 26.6047 116.04 26.1973 115.52 25.66C115.018 25.1227 114.619 24.4553 114.324 23.658C114.047 22.8433 113.908 21.9073 113.908 20.85C113.908 19.862 114.056 18.952 114.35 18.12C114.662 17.288 115.104 16.5773 115.676 15.988C116.266 15.3987 116.976 14.9393 117.808 14.61C118.64 14.2807 119.585 14.116 120.642 14.116C121.665 14.116 122.636 14.194 123.554 14.35C124.473 14.506 125.253 14.6707 125.894 14.844V26.622ZM129.897 14.844C130.503 14.6707 131.292 14.506 132.263 14.35C133.233 14.194 134.308 14.116 135.487 14.116C136.596 14.116 137.523 14.272 138.269 14.584C139.014 14.8787 139.603 15.3033 140.037 15.858C140.487 16.3953 140.799 17.054 140.973 17.834C141.163 18.5967 141.259 19.4373 141.259 20.356V28H138.113V20.85C138.113 20.122 138.061 19.5067 137.957 19.004C137.87 18.484 137.714 18.068 137.489 17.756C137.281 17.4267 136.986 17.1927 136.605 17.054C136.241 16.898 135.79 16.82 135.253 16.82C134.854 16.82 134.438 16.846 134.005 16.898C133.571 16.95 133.251 16.9933 133.043 17.028V28H129.897V14.844ZM159.754 12.452C157.899 12.452 156.478 13.0327 155.49 14.194C154.519 15.338 154.034 16.9327 154.034 18.978C154.034 19.9487 154.147 20.8413 154.372 21.656C154.615 22.4533 154.961 23.138 155.412 23.71C155.88 24.282 156.452 24.7327 157.128 25.062C157.821 25.374 158.627 25.53 159.546 25.53C160.118 25.53 160.612 25.5127 161.028 25.478C161.444 25.426 161.773 25.3653 162.016 25.296V18.822H165.292V27.48C164.841 27.6533 164.079 27.844 163.004 28.052C161.929 28.26 160.69 28.364 159.286 28.364C157.986 28.364 156.799 28.156 155.724 27.74C154.649 27.324 153.731 26.7173 152.968 25.92C152.223 25.1227 151.642 24.1433 151.226 22.982C150.81 21.8207 150.602 20.486 150.602 18.978C150.602 17.47 150.827 16.1353 151.278 14.974C151.746 13.8127 152.379 12.8333 153.176 12.036C153.973 11.2213 154.909 10.606 155.984 10.19C157.059 9.774 158.203 9.566 159.416 9.566C160.248 9.566 160.985 9.62667 161.626 9.748C162.285 9.852 162.848 9.97333 163.316 10.112C163.784 10.2507 164.165 10.398 164.46 10.554C164.772 10.71 164.989 10.8227 165.11 10.892L164.122 13.57C163.602 13.258 162.952 12.998 162.172 12.79C161.409 12.5647 160.603 12.452 159.754 12.452ZM180.076 27.584C179.469 27.74 178.681 27.896 177.71 28.052C176.74 28.2253 175.674 28.312 174.512 28.312C173.42 28.312 172.501 28.156 171.756 27.844C171.028 27.532 170.439 27.0987 169.988 26.544C169.555 25.9893 169.243 25.3307 169.052 24.568C168.861 23.788 168.766 22.9387 168.766 22.02V14.402H171.912V21.526C171.912 22.982 172.12 24.022 172.536 24.646C172.969 25.27 173.715 25.582 174.772 25.582C175.153 25.582 175.552 25.5647 175.968 25.53C176.401 25.4953 176.722 25.452 176.93 25.4V14.402H180.076V27.584ZM191.828 17.236C191.568 17.1493 191.204 17.0627 190.736 16.976C190.286 16.872 189.757 16.82 189.15 16.82C188.804 16.82 188.431 16.8547 188.032 16.924C187.651 16.9933 187.382 17.054 187.226 17.106V28H184.08V15.052C184.687 14.8267 185.441 14.6187 186.342 14.428C187.261 14.22 188.275 14.116 189.384 14.116C189.592 14.116 189.835 14.1333 190.112 14.168C190.39 14.1853 190.667 14.22 190.944 14.272C191.222 14.3067 191.49 14.3587 191.75 14.428C192.01 14.48 192.218 14.532 192.374 14.584L191.828 17.236ZM205.721 27.584C205.114 27.74 204.325 27.896 203.355 28.052C202.384 28.2253 201.318 28.312 200.157 28.312C199.065 28.312 198.146 28.156 197.401 27.844C196.673 27.532 196.083 27.0987 195.633 26.544C195.199 25.9893 194.887 25.3307 194.697 24.568C194.506 23.788 194.411 22.9387 194.411 22.02V14.402H197.557V21.526C197.557 22.982 197.765 24.022 198.181 24.646C198.614 25.27 199.359 25.582 200.417 25.582C200.798 25.582 201.197 25.5647 201.613 25.53C202.046 25.4953 202.367 25.452 202.575 25.4V14.402H205.721V27.584ZM213.131 25.738C213.963 25.738 214.57 25.6427 214.951 25.452C215.332 25.244 215.523 24.8973 215.523 24.412C215.523 23.9613 215.315 23.5887 214.899 23.294C214.5 22.9993 213.833 22.6787 212.897 22.332C212.325 22.124 211.796 21.9073 211.311 21.682C210.843 21.4393 210.436 21.162 210.089 20.85C209.742 20.538 209.465 20.1653 209.257 19.732C209.066 19.2813 208.971 18.7353 208.971 18.094C208.971 16.846 209.43 15.8667 210.349 15.156C211.268 14.428 212.516 14.064 214.093 14.064C214.89 14.064 215.653 14.142 216.381 14.298C217.109 14.4367 217.655 14.5753 218.019 14.714L217.447 17.262C217.1 17.106 216.658 16.9673 216.121 16.846C215.584 16.7073 214.96 16.638 214.249 16.638C213.608 16.638 213.088 16.7507 212.689 16.976C212.29 17.184 212.091 17.5133 212.091 17.964C212.091 18.1893 212.126 18.3887 212.195 18.562C212.282 18.7353 212.42 18.9 212.611 19.056C212.802 19.1947 213.053 19.342 213.365 19.498C213.677 19.6367 214.058 19.784 214.509 19.94C215.254 20.2173 215.887 20.4947 216.407 20.772C216.927 21.032 217.352 21.3353 217.681 21.682C218.028 22.0113 218.279 22.3927 218.435 22.826C218.591 23.2593 218.669 23.7793 218.669 24.386C218.669 25.686 218.184 26.674 217.213 27.35C216.26 28.0087 214.89 28.338 213.105 28.338C211.909 28.338 210.947 28.234 210.219 28.026C209.491 27.8353 208.98 27.6793 208.685 27.558L209.231 24.932C209.699 25.1227 210.254 25.3047 210.895 25.478C211.554 25.6513 212.299 25.738 213.131 25.738Z" fill="#E0E0E0"/>
<path d="M48.7419 20.7409C48.1879 20.7409 47.7147 20.8443 47.3222 21.0512C46.9298 21.235 46.5951 21.4878 46.3181 21.8095C46.0641 22.1082 45.8679 22.4644 45.7294 22.878C45.614 23.2686 45.5563 23.6707 45.5563 24.0844V30.2887C45.5563 31.2308 45.4524 32.0695 45.2446 32.8049C45.0369 33.5402 44.679 34.1606 44.1712 34.6662C43.6633 35.1717 42.9823 35.5508 42.1282 35.8036C41.2972 36.0564 40.2584 36.1828 39.0118 36.1828H38.8733V33.6666C40.1891 33.6666 41.124 33.4253 41.6781 32.9427C42.2552 32.4832 42.5437 31.587 42.5437 30.2542V24.9461C42.5437 23.4295 42.7399 22.2575 43.1324 21.4303C43.5479 20.6031 44.125 19.9597 44.8637 19.5001C44.125 19.0405 43.5479 18.3971 43.1324 17.5698C42.7399 16.7426 42.5437 15.5707 42.5437 14.0541V8.74594C42.5437 7.41317 42.2552 6.51699 41.6781 6.05741C41.124 5.57485 40.1891 5.33357 38.8733 5.33357V2.81738H39.0118C40.2584 2.81738 41.2972 2.95526 42.1282 3.231C42.9823 3.48377 43.6633 3.86292 44.1712 4.36846C44.679 4.85102 45.0369 5.45996 45.2446 6.19528C45.4524 6.93061 45.5563 7.76934 45.5563 8.71147V14.9158C45.5563 15.3294 45.614 15.743 45.7294 16.1566C45.8679 16.5473 46.0641 16.9035 46.3181 17.2252C46.5951 17.5239 46.9298 17.7767 47.3222 17.9835C47.7147 18.1673 48.1879 18.2592 48.7419 18.2592V20.7409Z" fill="#E0E0E0"/>
<path d="M11.8733 31.7049C11.8733 31.3156 12.2152 31 12.6369 31H17.2188C17.6406 31 17.9824 31.3156 17.9824 31.7049V31.7049C17.9824 32.0942 17.6406 32.4098 17.2188 32.4098H12.6369C12.2152 32.4098 11.8733 32.0942 11.8733 31.7049V31.7049Z" fill="#E0E0E0"/>
<path d="M20.332 31.7049C20.332 31.3156 20.6827 31 21.1153 31H30.8272C31.2598 31 31.6105 31.3156 31.6105 31.7049V31.7049C31.6105 32.0942 31.2598 32.4098 30.8272 32.4098H21.1153C20.6827 32.4098 20.332 32.0942 20.332 31.7049V31.7049Z" fill="#E0E0E0"/>
<path d="M11.8733 7.7049C11.8733 7.3156 12.2152 7 12.6369 7H17.2188C17.6406 7 17.9824 7.3156 17.9824 7.7049V7.7049C17.9824 8.09421 17.6406 8.4098 17.2188 8.4098H12.6369C12.2152 8.4098 11.8733 8.09421 11.8733 7.7049V7.7049Z" fill="#E0E0E0"/>
<path d="M19.8733 7.7049C19.8733 7.3156 20.202 7 20.6076 7H28.5377C28.9432 7 29.272 7.3156 29.272 7.7049V7.7049C29.272 8.09421 28.9432 8.4098 28.5377 8.4098H20.6076C20.202 8.4098 19.8733 8.09421 19.8733 7.7049V7.7049Z" fill="#E0E0E0"/>
<path d="M30.6487 15.7049C30.6487 15.3156 30.9917 15 31.4149 15H36.9315C37.3547 15 37.6977 15.3156 37.6977 15.7049V15.7049C37.6977 16.0942 37.3547 16.4098 36.9315 16.4098H31.4149C30.9917 16.4098 30.6487 16.0942 30.6487 15.7049V15.7049Z" fill="#E0E0E0"/>
<path d="M13.8733 15.7049C13.8733 15.3156 14.2374 15 14.6866 15H17.2894C17.7386 15 18.1027 15.3156 18.1027 15.7049V15.7049C18.1027 16.0942 17.7386 16.4098 17.2894 16.4098H14.6866C14.2374 16.4098 13.8733 16.0942 13.8733 15.7049V15.7049Z" fill="#E0E0E0"/>
<path d="M19.6487 15.7049C19.6487 15.3156 19.9933 15 20.4184 15H27.8077C28.2328 15 28.5774 15.3156 28.5774 15.7049V15.7049C28.5774 16.0942 28.2328 16.4098 27.8077 16.4098H20.4184C19.9933 16.4098 19.6487 16.0942 19.6487 15.7049V15.7049Z" fill="#E0E0E0"/>
<path d="M16.8733 23.705C16.8733 23.3156 17.224 23 17.6565 23H18.9097C19.3422 23 19.6929 23.3156 19.6929 23.705V23.705C19.6929 24.0944 19.3422 24.41 18.9097 24.41H17.6565C17.224 24.41 16.8733 24.0944 16.8733 23.705V23.705Z" fill="#E0E0E0"/>
<path d="M21.8733 23.705C21.8733 23.3156 22.224 23 22.6565 23H31.4286C31.8612 23 32.2119 23.3156 32.2119 23.705V23.705C32.2119 24.0944 31.8612 24.41 31.4286 24.41H22.6565C22.224 24.41 21.8733 24.0944 21.8733 23.705V23.705Z" fill="#E0E0E0"/>
<path d="M33.8733 23.7049C33.8733 23.3156 34.202 23 34.6076 23H37.8384C38.2439 23 38.5726 23.3156 38.5726 23.7049V23.7049C38.5726 24.0942 38.2439 24.4098 37.8384 24.4098H34.6076C34.202 24.4098 33.8733 24.0942 33.8733 23.7049V23.7049Z" fill="#E0E0E0"/>
<path d="M26.8733 11.7049C26.8733 11.3156 27.224 11 27.6565 11H32.6692C33.1017 11 33.4524 11.3156 33.4524 11.7049V11.7049C33.4524 12.0942 33.1017 12.4098 32.6692 12.4098H27.6565C27.224 12.4098 26.8733 12.0942 26.8733 11.7049V11.7049Z" fill="#E0E0E0"/>
<path d="M11.8733 11.7049C11.8733 11.3156 12.2123 11 12.6304 11H24.7443C25.1624 11 25.5014 11.3156 25.5014 11.7049V11.7049C25.5014 12.0942 25.1624 12.4098 24.7443 12.4098H12.6304C12.2123 12.4098 11.8733 12.0942 11.8733 11.7049V11.7049Z" fill="#E0E0E0"/>
<path d="M32.8733 19.7049C32.8733 19.3156 33.2114 19 33.6285 19H36.3475C36.7646 19 37.1027 19.3156 37.1027 19.7049V19.7049C37.1027 20.0942 36.7646 20.4098 36.3475 20.4098H33.6285C33.2114 20.4098 32.8733 20.0942 32.8733 19.7049V19.7049Z" fill="#E0E0E0"/>
<path d="M16.8733 19.7049C16.8733 19.3156 17.224 19 17.6565 19H30.1881C30.6207 19 30.9713 19.3156 30.9713 19.7049V19.7049C30.9713 20.0942 30.6207 20.4098 30.1881 20.4098H17.6565C17.224 20.4098 16.8733 20.0942 16.8733 19.7049V19.7049Z" fill="#E0E0E0"/>
<path d="M28.8733 27.7049C28.8733 27.3156 29.2374 27 29.6866 27H32.2894C32.7386 27 33.1027 27.3156 33.1027 27.7049V27.7049C33.1027 28.0942 32.7386 28.4098 32.2894 28.4098H29.6866C29.2374 28.4098 28.8733 28.0942 28.8733 27.7049V27.7049Z" fill="#E0E0E0"/>
<path d="M13.8733 27.7049C13.8733 27.3156 14.2123 27 14.6304 27H26.7443C27.1624 27 27.5014 27.3156 27.5014 27.7049V27.7049C27.5014 28.0942 27.1624 28.4098 26.7443 28.4098H14.6304C14.2123 28.4098 13.8733 28.0942 13.8733 27.7049V27.7049Z" fill="#E0E0E0"/>
<path d="M0 18.0417C0.527646 18.0417 0.978344 17.9511 1.35209 17.7699C1.72584 17.566 2.03364 17.3168 2.27547 17.0222C2.5393 16.7051 2.72617 16.3539 2.8361 15.9688C2.96801 15.561 3.03397 15.1532 3.03397 14.7454V8.62846C3.03397 7.69959 3.1329 6.87268 3.33077 6.14771C3.52863 5.42274 3.86941 4.82237 4.35308 4.34661C4.83676 3.8482 5.47433 3.47439 6.2658 3.22518C7.07925 2.95331 8.07958 2.81738 9.26679 2.81738H9.3987V5.29814C8.14554 5.29814 7.24414 5.53602 6.69451 6.01178C6.16687 6.46488 5.90304 7.34844 5.90304 8.66244V13.8958C5.90304 15.3911 5.70518 16.5465 5.30944 17.3621C4.93569 18.1777 4.39705 18.812 3.69352 19.2651C4.39705 19.7182 4.93569 20.3526 5.30944 21.1681C5.70518 21.9837 5.90304 23.1392 5.90304 24.6344V29.8678C5.90304 31.1818 6.16687 32.0653 6.69451 32.5184C7.24414 32.9942 8.14554 33.2321 9.3987 33.2321V35.7128H9.26679C8.07958 35.7128 7.07925 35.5882 6.2658 35.339C5.47433 35.0898 4.83676 34.716 4.35308 34.2176C3.86941 33.7192 3.52863 33.1075 3.33077 32.3825C3.1329 31.6575 3.03397 30.8306 3.03397 29.9018V23.7848C3.03397 23.377 2.96801 22.9806 2.8361 22.5954C2.72617 22.1876 2.5393 21.8365 2.27547 21.542C2.03364 21.2248 1.72584 20.9756 1.35209 20.7943C0.978344 20.5904 0.527646 20.4885 0 20.4885V18.0417Z" fill="#E0E0E0"/>
</svg>
