<svg width="220" height="37" viewBox="0 0 220 37" fill="none" xmlns="http://www.w3.org/2000/svg">
<path d="M65.434 25.296C65.6247 25.3133 65.876 25.3307 66.188 25.348C66.5 25.348 66.9247 25.348 67.462 25.348C69.6633 25.348 71.3013 24.7933 72.376 23.684C73.468 22.5573 74.014 20.9887 74.014 18.978C74.014 16.9327 73.4853 15.364 72.428 14.272C71.3707 13.18 69.7327 12.634 67.514 12.634C66.5433 12.634 65.85 12.66 65.434 12.712V25.296ZM77.446 18.978C77.446 20.538 77.2033 21.8987 76.718 23.06C76.2327 24.204 75.5393 25.166 74.638 25.946C73.754 26.7087 72.6793 27.2807 71.414 27.662C70.166 28.026 68.7793 28.208 67.254 28.208C66.526 28.208 65.7027 28.1733 64.784 28.104C63.8653 28.052 62.99 27.9307 62.158 27.74V10.242C62.99 10.0513 63.874 9.93 64.81 9.878C65.746 9.826 66.578 9.8 67.306 9.8C68.814 9.8 70.192 9.982 71.44 10.346C72.688 10.6927 73.754 11.2473 74.638 12.01C75.5393 12.7553 76.2327 13.7087 76.718 14.87C77.2033 16.014 77.446 17.3833 77.446 18.978ZM80.1132 21.266C80.1132 20.07 80.2866 19.0213 80.6332 18.12C80.9972 17.2187 81.4739 16.4733 82.0632 15.884C82.6526 15.2773 83.3286 14.8267 84.0912 14.532C84.8539 14.22 85.6339 14.064 86.4312 14.064C88.3032 14.064 89.7592 14.6447 90.7992 15.806C91.8566 16.9673 92.3852 18.7007 92.3852 21.006C92.3852 21.1793 92.3766 21.3787 92.3592 21.604C92.3592 21.812 92.3506 22.0027 92.3332 22.176H83.3632C83.4499 23.268 83.8312 24.1173 84.5072 24.724C85.2006 25.3133 86.1972 25.608 87.4972 25.608C88.2599 25.608 88.9532 25.5387 89.5772 25.4C90.2186 25.2613 90.7212 25.114 91.0852 24.958L91.5012 27.532C91.3279 27.6187 91.0852 27.714 90.7732 27.818C90.4786 27.9047 90.1319 27.9827 89.7332 28.052C89.3519 28.1387 88.9359 28.208 88.4852 28.26C88.0346 28.312 87.5752 28.338 87.1072 28.338C85.9112 28.338 84.8712 28.1647 83.9872 27.818C83.1032 27.454 82.3752 26.96 81.8032 26.336C81.2312 25.6947 80.8066 24.9493 80.5292 24.1C80.2519 23.2333 80.1132 22.2887 80.1132 21.266ZM89.2392 19.862C89.2392 19.4287 89.1786 19.0213 89.0572 18.64C88.9359 18.2413 88.7539 17.9033 88.5112 17.626C88.2859 17.3313 87.9999 17.106 87.6532 16.95C87.3239 16.7767 86.9252 16.69 86.4572 16.69C85.9719 16.69 85.5472 16.7853 85.1832 16.976C84.8192 17.1493 84.5072 17.3833 84.2472 17.678C84.0046 17.9727 83.8139 18.3107 83.6752 18.692C83.5366 19.0733 83.4412 19.4633 83.3892 19.862H89.2392ZM99.1268 25.738C99.9588 25.738 100.565 25.6427 100.947 25.452C101.328 25.244 101.519 24.8973 101.519 24.412C101.519 23.9613 101.311 23.5887 100.895 23.294C100.496 22.9993 99.8288 22.6787 98.8928 22.332C98.3208 22.124 97.7921 21.9073 97.3068 21.682C96.8388 21.4393 96.4314 21.162 96.0848 20.85C95.7381 20.538 95.4608 20.1653 95.2528 19.732C95.0621 19.2813 94.9668 18.7353 94.9668 18.094C94.9668 16.846 95.4261 15.8667 96.3448 15.156C97.2634 14.428 98.5114 14.064 100.089 14.064C100.886 14.064 101.649 14.142 102.377 14.298C103.105 14.4367 103.651 14.5753 104.015 14.714L103.443 17.262C103.096 17.106 102.654 16.9673 102.117 16.846C101.579 16.7073 100.955 16.638 100.245 16.638C99.6034 16.638 99.0834 16.7507 98.6848 16.976C98.2861 17.184 98.0868 17.5133 98.0868 17.964C98.0868 18.1893 98.1214 18.3887 98.1908 18.562C98.2774 18.7353 98.4161 18.9 98.6068 19.056C98.7974 19.1947 99.0488 19.342 99.3608 19.498C99.6728 19.6367 100.054 19.784 100.505 19.94C101.25 20.2173 101.883 20.4947 102.403 20.772C102.923 21.032 103.347 21.3353 103.677 21.682C104.023 22.0113 104.275 22.3927 104.431 22.826C104.587 23.2593 104.665 23.7793 104.665 24.386C104.665 25.686 104.179 26.674 103.209 27.35C102.255 28.0087 100.886 28.338 99.1008 28.338C97.9048 28.338 96.9428 28.234 96.2148 28.026C95.4868 27.8353 94.9754 27.6793 94.6808 27.558L95.2268 24.932C95.6948 25.1227 96.2494 25.3047 96.8908 25.478C97.5494 25.6513 98.2948 25.738 99.1268 25.738ZM110.776 28H107.63V14.402H110.776V28ZM111.114 10.424C111.114 11.0133 110.923 11.4813 110.542 11.828C110.16 12.1747 109.71 12.348 109.19 12.348C108.652 12.348 108.193 12.1747 107.812 11.828C107.43 11.4813 107.24 11.0133 107.24 10.424C107.24 9.81733 107.43 9.34067 107.812 8.994C108.193 8.64733 108.652 8.474 109.19 8.474C109.71 8.474 110.16 8.64733 110.542 8.994C110.923 9.34067 111.114 9.81733 111.114 10.424ZM117.259 20.85C117.259 22.1847 117.545 23.164 118.117 23.788C118.706 24.3947 119.46 24.698 120.379 24.698C120.882 24.698 121.35 24.6287 121.783 24.49C122.234 24.3513 122.598 24.1867 122.875 23.996V16.95C122.65 16.898 122.372 16.8547 122.043 16.82C121.714 16.768 121.298 16.742 120.795 16.742C119.651 16.742 118.776 17.1233 118.169 17.886C117.562 18.6313 117.259 19.6193 117.259 20.85ZM126.021 26.622C126.021 28.7887 125.466 30.3747 124.357 31.38C123.265 32.3853 121.584 32.888 119.313 32.888C118.481 32.888 117.666 32.8187 116.869 32.68C116.089 32.5413 115.378 32.3593 114.737 32.134L115.309 29.456C115.846 29.6813 116.453 29.8633 117.129 30.002C117.822 30.1407 118.568 30.21 119.365 30.21C120.63 30.21 121.532 29.95 122.069 29.43C122.606 28.91 122.875 28.1387 122.875 27.116V26.596C122.563 26.752 122.147 26.908 121.627 27.064C121.124 27.22 120.544 27.298 119.885 27.298C119.018 27.298 118.221 27.1593 117.493 26.882C116.782 26.6047 116.167 26.1973 115.647 25.66C115.144 25.1227 114.746 24.4553 114.451 23.658C114.174 22.8433 114.035 21.9073 114.035 20.85C114.035 19.862 114.182 18.952 114.477 18.12C114.789 17.288 115.231 16.5773 115.803 15.988C116.392 15.3987 117.103 14.9393 117.935 14.61C118.767 14.2807 119.712 14.116 120.769 14.116C121.792 14.116 122.762 14.194 123.681 14.35C124.6 14.506 125.38 14.6707 126.021 14.844V26.622ZM130.023 14.844C130.63 14.6707 131.419 14.506 132.389 14.35C133.36 14.194 134.435 14.116 135.613 14.116C136.723 14.116 137.65 14.272 138.395 14.584C139.141 14.8787 139.73 15.3033 140.163 15.858C140.614 16.3953 140.926 17.054 141.099 17.834C141.29 18.5967 141.385 19.4373 141.385 20.356V28H138.239V20.85C138.239 20.122 138.187 19.5067 138.083 19.004C137.997 18.484 137.841 18.068 137.615 17.756C137.407 17.4267 137.113 17.1927 136.731 17.054C136.367 16.898 135.917 16.82 135.379 16.82C134.981 16.82 134.565 16.846 134.131 16.898C133.698 16.95 133.377 16.9933 133.169 17.028V28H130.023V14.844ZM159.881 12.452C158.026 12.452 156.605 13.0327 155.617 14.194C154.646 15.338 154.161 16.9327 154.161 18.978C154.161 19.9487 154.273 20.8413 154.499 21.656C154.741 22.4533 155.088 23.138 155.539 23.71C156.007 24.282 156.579 24.7327 157.255 25.062C157.948 25.374 158.754 25.53 159.673 25.53C160.245 25.53 160.739 25.5127 161.155 25.478C161.571 25.426 161.9 25.3653 162.143 25.296V18.822H165.419V27.48C164.968 27.6533 164.205 27.844 163.131 28.052C162.056 28.26 160.817 28.364 159.413 28.364C158.113 28.364 156.925 28.156 155.851 27.74C154.776 27.324 153.857 26.7173 153.095 25.92C152.349 25.1227 151.769 24.1433 151.353 22.982C150.937 21.8207 150.729 20.486 150.729 18.978C150.729 17.47 150.954 16.1353 151.405 14.974C151.873 13.8127 152.505 12.8333 153.303 12.036C154.1 11.2213 155.036 10.606 156.111 10.19C157.185 9.774 158.329 9.566 159.543 9.566C160.375 9.566 161.111 9.62667 161.753 9.748C162.411 9.852 162.975 9.97333 163.443 10.112C163.911 10.2507 164.292 10.398 164.587 10.554C164.899 10.71 165.115 10.8227 165.237 10.892L164.249 13.57C163.729 13.258 163.079 12.998 162.299 12.79C161.536 12.5647 160.73 12.452 159.881 12.452ZM180.203 27.584C179.596 27.74 178.808 27.896 177.837 28.052C176.866 28.2253 175.8 28.312 174.639 28.312C173.547 28.312 172.628 28.156 171.883 27.844C171.155 27.532 170.566 27.0987 170.115 26.544C169.682 25.9893 169.37 25.3307 169.179 24.568C168.988 23.788 168.893 22.9387 168.893 22.02V14.402H172.039V21.526C172.039 22.982 172.247 24.022 172.663 24.646C173.096 25.27 173.842 25.582 174.899 25.582C175.28 25.582 175.679 25.5647 176.095 25.53C176.528 25.4953 176.849 25.452 177.057 25.4V14.402H180.203V27.584ZM191.955 17.236C191.695 17.1493 191.331 17.0627 190.863 16.976C190.412 16.872 189.884 16.82 189.277 16.82C188.93 16.82 188.558 16.8547 188.159 16.924C187.778 16.9933 187.509 17.054 187.353 17.106V28H184.207V15.052C184.814 14.8267 185.568 14.6187 186.469 14.428C187.388 14.22 188.402 14.116 189.511 14.116C189.719 14.116 189.962 14.1333 190.239 14.168C190.516 14.1853 190.794 14.22 191.071 14.272C191.348 14.3067 191.617 14.3587 191.877 14.428C192.137 14.48 192.345 14.532 192.501 14.584L191.955 17.236ZM205.847 27.584C205.241 27.74 204.452 27.896 203.481 28.052C202.511 28.2253 201.445 28.312 200.283 28.312C199.191 28.312 198.273 28.156 197.527 27.844C196.799 27.532 196.21 27.0987 195.759 26.544C195.326 25.9893 195.014 25.3307 194.823 24.568C194.633 23.788 194.537 22.9387 194.537 22.02V14.402H197.683V21.526C197.683 22.982 197.891 24.022 198.307 24.646C198.741 25.27 199.486 25.582 200.543 25.582C200.925 25.582 201.323 25.5647 201.739 25.53C202.173 25.4953 202.493 25.452 202.701 25.4V14.402H205.847V27.584ZM213.258 25.738C214.09 25.738 214.696 25.6427 215.078 25.452C215.459 25.244 215.65 24.8973 215.65 24.412C215.65 23.9613 215.442 23.5887 215.026 23.294C214.627 22.9993 213.96 22.6787 213.024 22.332C212.452 22.124 211.923 21.9073 211.438 21.682C210.97 21.4393 210.562 21.162 210.216 20.85C209.869 20.538 209.592 20.1653 209.384 19.732C209.193 19.2813 209.098 18.7353 209.098 18.094C209.098 16.846 209.557 15.8667 210.476 15.156C211.394 14.428 212.642 14.064 214.22 14.064C215.017 14.064 215.78 14.142 216.508 14.298C217.236 14.4367 217.782 14.5753 218.146 14.714L217.574 17.262C217.227 17.106 216.785 16.9673 216.248 16.846C215.71 16.7073 215.086 16.638 214.376 16.638C213.734 16.638 213.214 16.7507 212.816 16.976C212.417 17.184 212.218 17.5133 212.218 17.964C212.218 18.1893 212.252 18.3887 212.322 18.562C212.408 18.7353 212.547 18.9 212.738 19.056C212.928 19.1947 213.18 19.342 213.492 19.498C213.804 19.6367 214.185 19.784 214.636 19.94C215.381 20.2173 216.014 20.4947 216.534 20.772C217.054 21.032 217.478 21.3353 217.808 21.682C218.154 22.0113 218.406 22.3927 218.562 22.826C218.718 23.2593 218.796 23.7793 218.796 24.386C218.796 25.686 218.31 26.674 217.34 27.35C216.386 28.0087 215.017 28.338 213.232 28.338C212.036 28.338 211.074 28.234 210.346 28.026C209.618 27.8353 209.106 27.6793 208.812 27.558L209.358 24.932C209.826 25.1227 210.38 25.3047 211.022 25.478C211.68 25.6513 212.426 25.738 213.258 25.738Z" fill="#013C74"/>
<path d="M48.8686 20.7409C48.3146 20.7409 47.8414 20.8443 47.4489 21.0512C47.0565 21.235 46.7218 21.4878 46.4448 21.8095C46.1908 22.1082 45.9946 22.4644 45.8561 22.878C45.7407 23.2686 45.683 23.6707 45.683 24.0844V30.2887C45.683 31.2308 45.5791 32.0695 45.3713 32.8049C45.1636 33.5402 44.8058 34.1606 44.2979 34.6662C43.79 35.1717 43.109 35.5508 42.2549 35.8036C41.4239 36.0564 40.3851 36.1828 39.1385 36.1828H39V33.6666C40.3158 33.6666 41.2507 33.4253 41.8048 32.9427C42.3819 32.4832 42.6704 31.587 42.6704 30.2542V24.9461C42.6704 23.4295 42.8667 22.2575 43.2591 21.4303C43.6746 20.6031 44.2517 19.9597 44.9904 19.5001C44.2517 19.0405 43.6746 18.3971 43.2591 17.5698C42.8667 16.7426 42.6704 15.5707 42.6704 14.0541V8.74594C42.6704 7.41317 42.3819 6.51699 41.8048 6.05741C41.2507 5.57485 40.3158 5.33357 39 5.33357V2.81738H39.1385C40.3851 2.81738 41.4239 2.95526 42.2549 3.231C43.109 3.48377 43.79 3.86292 44.2979 4.36846C44.8058 4.85102 45.1636 5.45996 45.3713 6.19528C45.5791 6.93061 45.683 7.76934 45.683 8.71147V14.9158C45.683 15.3294 45.7407 15.743 45.8561 16.1566C45.9946 16.5473 46.1908 16.9035 46.4448 17.2252C46.7218 17.5239 47.0565 17.7767 47.4489 17.9835C47.8414 18.1673 48.3146 18.2592 48.8686 18.2592V20.7409Z" fill="#004E98"/>
<path d="M12 31.7049C12 31.3156 12.3419 31 12.7636 31H17.3455C17.7673 31 18.1092 31.3156 18.1092 31.7049V31.7049C18.1092 32.0942 17.7673 32.4098 17.3455 32.4098H12.7636C12.3419 32.4098 12 32.0942 12 31.7049V31.7049Z" fill="#FF6700"/>
<path d="M20.4587 31.7049C20.4587 31.3156 20.8094 31 21.242 31H30.954C31.3865 31 31.7372 31.3156 31.7372 31.7049V31.7049C31.7372 32.0942 31.3865 32.4098 30.954 32.4098H21.242C20.8094 32.4098 20.4587 32.0942 20.4587 31.7049V31.7049Z" fill="#59C19C"/>
<path d="M12 7.7049C12 7.3156 12.3419 7 12.7636 7H17.3455C17.7673 7 18.1092 7.3156 18.1092 7.7049V7.7049C18.1092 8.09421 17.7673 8.4098 17.3455 8.4098H12.7636C12.3419 8.4098 12 8.09421 12 7.7049V7.7049Z" fill="#FF6700"/>
<path d="M20 7.7049C20 7.3156 20.3287 7 20.7343 7H28.6644C29.07 7 29.3987 7.3156 29.3987 7.7049V7.7049C29.3987 8.09421 29.07 8.4098 28.6644 8.4098H20.7343C20.3287 8.4098 20 8.09421 20 7.7049V7.7049Z" fill="black"/>
<path d="M30.7754 15.7049C30.7754 15.3156 31.1184 15 31.5416 15H37.0582C37.4814 15 37.8244 15.3156 37.8244 15.7049V15.7049C37.8244 16.0942 37.4814 16.4098 37.0582 16.4098H31.5416C31.1184 16.4098 30.7754 16.0942 30.7754 15.7049V15.7049Z" fill="#FF6700"/>
<path d="M14 15.7049C14 15.3156 14.3641 15 14.8133 15H17.4161C17.8653 15 18.2294 15.3156 18.2294 15.7049V15.7049C18.2294 16.0942 17.8653 16.4098 17.4161 16.4098H14.8133C14.3641 16.4098 14 16.0942 14 15.7049V15.7049Z" fill="#668AAA"/>
<path d="M19.7754 15.7049C19.7754 15.3156 20.12 15 20.5451 15H27.9344C28.3595 15 28.7042 15.3156 28.7042 15.7049V15.7049C28.7042 16.0942 28.3595 16.4098 27.9344 16.4098H20.5451C20.12 16.4098 19.7754 16.0942 19.7754 15.7049V15.7049Z" fill="black"/>
<path d="M17 23.705C17 23.3156 17.3507 23 17.7832 23H19.0364C19.4689 23 19.8196 23.3156 19.8196 23.705V23.705C19.8196 24.0944 19.4689 24.41 19.0364 24.41H17.7832C17.3507 24.41 17 24.0944 17 23.705V23.705Z" fill="black"/>
<path d="M22 23.705C22 23.3156 22.3507 23 22.7832 23H31.5553C31.9879 23 32.3386 23.3156 32.3386 23.705V23.705C32.3386 24.0944 31.9879 24.41 31.5553 24.41H22.7832C22.3507 24.41 22 24.0944 22 23.705V23.705Z" fill="#59C19C"/>
<path d="M34 23.7049C34 23.3156 34.3287 23 34.7343 23H37.9651C38.3706 23 38.6993 23.3156 38.6993 23.7049V23.7049C38.6993 24.0942 38.3706 24.4098 37.9651 24.4098H34.7343C34.3287 24.4098 34 24.0942 34 23.7049V23.7049Z" fill="#668AAA"/>
<path d="M27 11.7049C27 11.3156 27.3507 11 27.7832 11H32.7959C33.2284 11 33.5791 11.3156 33.5791 11.7049V11.7049C33.5791 12.0942 33.2284 12.4098 32.7959 12.4098H27.7832C27.3507 12.4098 27 12.0942 27 11.7049V11.7049Z" fill="#668AAA"/>
<path d="M12 11.7049C12 11.3156 12.339 11 12.7571 11H24.871C25.2891 11 25.6281 11.3156 25.6281 11.7049V11.7049C25.6281 12.0942 25.2891 12.4098 24.871 12.4098H12.7571C12.339 12.4098 12 12.0942 12 11.7049V11.7049Z" fill="#59C19C"/>
<path d="M33 19.7049C33 19.3156 33.3381 19 33.7553 19H36.4742C36.8913 19 37.2294 19.3156 37.2294 19.7049V19.7049C37.2294 20.0942 36.8913 20.4098 36.4742 20.4098H33.7553C33.3381 20.4098 33 20.0942 33 19.7049V19.7049Z" fill="black"/>
<path d="M17 19.7049C17 19.3156 17.3507 19 17.7832 19H30.3148C30.7474 19 31.098 19.3156 31.098 19.7049V19.7049C31.098 20.0942 30.7474 20.4098 30.3148 20.4098H17.7832C17.3507 20.4098 17 20.0942 17 19.7049V19.7049Z" fill="#FF6700"/>
<path d="M29 27.7049C29 27.3156 29.3641 27 29.8133 27H32.4161C32.8653 27 33.2294 27.3156 33.2294 27.7049V27.7049C33.2294 28.0942 32.8653 28.4098 32.4161 28.4098H29.8133C29.3641 28.4098 29 28.0942 29 27.7049V27.7049Z" fill="black"/>
<path d="M14 27.7049C14 27.3156 14.339 27 14.7571 27H26.871C27.2891 27 27.6281 27.3156 27.6281 27.7049V27.7049C27.6281 28.0942 27.2891 28.4098 26.871 28.4098H14.7571C14.339 28.4098 14 28.0942 14 27.7049V27.7049Z" fill="#668AAA"/>
<path d="M0.126709 18.0417C0.654355 18.0417 1.10505 17.9511 1.4788 17.7699C1.85255 17.566 2.16035 17.3168 2.40218 17.0222C2.66601 16.7051 2.85288 16.3539 2.96281 15.9688C3.09472 15.561 3.16067 15.1532 3.16067 14.7454V8.62846C3.16067 7.69959 3.25961 6.87268 3.45748 6.14771C3.65534 5.42274 3.99611 4.82237 4.47979 4.34661C4.96347 3.8482 5.60104 3.47439 6.39251 3.22518C7.20596 2.95331 8.20629 2.81738 9.3935 2.81738H9.52541V5.29814C8.27225 5.29814 7.37085 5.53602 6.82122 6.01178C6.29357 6.46488 6.02975 7.34844 6.02975 8.66244V13.8958C6.02975 15.3911 5.83188 16.5465 5.43615 17.3621C5.0624 18.1777 4.52376 18.812 3.82023 19.2651C4.52376 19.7182 5.0624 20.3526 5.43615 21.1681C5.83188 21.9837 6.02975 23.1392 6.02975 24.6344V29.8678C6.02975 31.1818 6.29357 32.0653 6.82122 32.5184C7.37085 32.9942 8.27225 33.2321 9.52541 33.2321V35.7128H9.3935C8.20629 35.7128 7.20596 35.5882 6.39251 35.339C5.60104 35.0898 4.96347 34.716 4.47979 34.2176C3.99611 33.7192 3.65534 33.1075 3.45748 32.3825C3.25961 31.6575 3.16067 30.8306 3.16067 29.9018V23.7848C3.16067 23.377 3.09472 22.9806 2.96281 22.5954C2.85288 22.1876 2.66601 21.8365 2.40218 21.542C2.16035 21.2248 1.85255 20.9756 1.4788 20.7943C1.10505 20.5904 0.654355 20.4885 0.126709 20.4885V18.0417Z" fill="#004E98"/>
</svg>
